<svg xmlns="http://www.w3.org/2000/svg" width="138" height="138" viewBox="0 0 138 138"><g><g><path fill="#d94748" d="M68.926-.102c38.033 0 68.864 30.833 68.864 68.866s-30.831 68.865-68.864 68.865C30.894 137.63.062 106.797.062 68.764.062 30.73 30.894-.102 68.926-.102z"/></g><g><path fill="#fff" d="M42.462 38.2h53.899a8.277 8.277 0 0 1 8.29 8.299v31.095a8.27 8.27 0 0 1-8.29 8.292H77.706V92.1h8.29c1.144 0 2.075.93 2.075 2.075v4.149h-37.32v-4.15c0-1.144.932-2.074 2.076-2.074h8.29v-6.214H42.462a8.27 8.27 0 0 1-8.29-8.292V46.499c0-4.595 3.695-8.3 8.29-8.3zm2.075 8.299a2.07 2.07 0 0 0-2.075 2.066V75.52c0 1.143.931 2.073 2.075 2.073h49.749a2.07 2.07 0 0 0 2.075-2.073V48.565a2.064 2.064 0 0 0-2.075-2.066z"/></g></g></svg>