<svg xmlns="http://www.w3.org/2000/svg" width="137" height="136" viewBox="0 0 137 136"><g><g><path fill="#5094f2" d="M68.534.008c37.445 0 67.8 30.356 67.8 67.801 0 37.446-30.355 67.801-67.8 67.801-37.445 0-67.8-30.355-67.8-67.8C.734 30.363 31.09.007 68.534.007z"/></g><g><path fill="#fff" d="M98.38 46.586l-4.798 7.701-23.949-14.91 4.794-7.701a7.257 7.257 0 0 1 9.995-2.326l11.633 7.242a7.257 7.257 0 0 1 2.324 9.994zM69.586 92.742L45.69 77.835 67.81 42.38 91.707 57.3zm3.226-41.385c-1.125-.7-2.573-.41-3.214.636l-15.725 25.19c-.66 1.031-.283 2.459.849 3.16 1.114.706 2.561.415 3.217-.613l15.721-25.198c.656-1.045.27-2.477-.848-3.175zm8.658 5.402c-1.12-.69-2.576-.413-3.218.634L62.525 82.59c-.648 1.028-.266 2.466.852 3.154 1.125.712 2.57.418 3.223-.613l15.728-25.187c.649-1.057.266-2.476-.857-3.185zm-24.637 44.7c-1.158-2.431-2.974-4.586-5.428-6.113-2.452-1.527-5.184-2.204-7.873-2.172L43.1 82.062l23.876 14.9zm-6.733-4.022a11.33 11.33 0 0 1 4.393 5.056l-10.42 4.62-.445-11.388c2.205-.088 4.457.46 6.472 1.712z"/></g></g></svg>